<svg width="30" height="20" viewBox="0 0 30 20" fill="none" xmlns="http://www.w3.org/2000/svg">
<path d="M24.1875 7.55C23.3375 3.2375 19.55 0 15 0C11.3875 0 8.25 2.05 6.6875 5.05C2.925 5.45 0 8.6375 0 12.5C0 16.6375 3.3625 20 7.5 20H23.75C27.2 20 30 17.2 30 13.75C30 10.45 27.4375 7.775 24.1875 7.55ZM23.75 17.5H7.5C4.7375 17.5 2.5 15.2625 2.5 12.5C2.5 9.7375 4.7375 7.5 7.5 7.5H8.3875C9.2125 4.6125 11.85 2.5 15 2.5C18.8 2.5 21.875 5.575 21.875 9.375V10H23.75C25.825 10 27.5 11.675 27.5 13.75C27.5 15.825 25.825 17.5 23.75 17.5Z" fill="#999999"/>
</svg>
