<svg width="30" height="23" viewBox="0 0 30 23" fill="none" xmlns="http://www.w3.org/2000/svg">
<path d="M24.1875 7.55C23.3375 3.2375 19.55 0 15 0C13.15 0 11.4375 0.5375 9.9875 1.4625L11.8125 3.2875C12.7625 2.7875 13.85 2.5 15 2.5C18.8 2.5 21.875 5.575 21.875 9.375V10H23.75C25.825 10 27.5 11.675 27.5 13.75C27.5 15.1625 26.7 16.3875 25.55 17.025L27.3625 18.8375C28.95 17.7 30 15.85 30 13.75C30 10.45 27.4375 7.775 24.1875 7.55ZM3.75 1.5875L7.1875 5.0125C3.2 5.1875 0 8.4625 0 12.5C0 16.6375 3.3625 20 7.5 20H22.1625L24.6625 22.5L26.25 20.9125L5.3375 0L3.75 1.5875ZM9.6625 7.5L19.6625 17.5H7.5C4.7375 17.5 2.5 15.2625 2.5 12.5C2.5 9.7375 4.7375 7.5 7.5 7.5H9.6625Z" fill="#999999"/>
</svg>
