<svg width="19" height="12" viewBox="0 0 19 12" fill="none" xmlns="http://www.w3.org/2000/svg">
<path d="M14.958 4.53C14.4409 1.9425 12.1367 0 9.36864 0C7.17092 0 5.26218 1.23 4.3116 3.03C2.02263 3.27 0.243164 5.1825 0.243164 7.5C0.243164 9.9825 2.28879 12 4.8059 12H14.6918C16.7907 12 18.4941 10.32 18.4941 8.25C18.4941 6.27 16.9352 4.665 14.958 4.53ZM14.6918 10.5H4.8059C3.12529 10.5 1.76408 9.1575 1.76408 7.5C1.76408 5.8425 3.12529 4.5 4.8059 4.5H5.34583C5.84773 2.7675 7.45229 1.5 9.36864 1.5C11.6804 1.5 13.5511 3.345 13.5511 5.625V6H14.6918C15.9542 6 16.9732 7.005 16.9732 8.25C16.9732 9.495 15.9542 10.5 14.6918 10.5Z" fill="black"/>
</svg>
