<svg width="19" height="14" viewBox="0 0 19 14" fill="none" xmlns="http://www.w3.org/2000/svg">
<path d="M15.3821 4.53C14.8623 1.9425 12.5464 0 9.76424 0C8.63303 0 7.5859 0.3225 6.69928 0.8775L7.8152 1.9725C8.39609 1.6725 9.06105 1.5 9.76424 1.5C12.0878 1.5 13.968 3.345 13.968 5.625V6H15.1145C16.3833 6 17.4075 7.005 17.4075 8.25C17.4075 9.0975 16.9184 9.8325 16.2152 10.215L17.3235 11.3025C18.2942 10.62 18.9362 9.51 18.9362 8.25C18.9362 6.27 17.3693 4.665 15.3821 4.53ZM2.88527 0.9525L4.98718 3.0075C2.54897 3.1125 0.592285 5.0775 0.592285 7.5C0.592285 9.9825 2.64833 12 5.17826 12H14.1438L15.6725 13.5L16.6432 12.5475L3.85597 0L2.88527 0.9525ZM6.50055 4.5L12.6152 10.5H5.17826C3.48909 10.5 2.12094 9.1575 2.12094 7.5C2.12094 5.8425 3.48909 4.5 5.17826 4.5H6.50055Z" fill="#262C32"/>
</svg>
